<?xml version="1.0" standalone="no"?>
<!DOCTYPE svg PUBLIC "-//W3C//DTD SVG 20010904//EN"
 "http://www.w3.org/TR/2001/REC-SVG-20010904/DTD/svg10.dtd">
<svg version="1.0" xmlns="http://www.w3.org/2000/svg"
 width="45.000000pt" height="45.000000pt" viewBox="0 0 45.000000 45.000000"
 preserveAspectRatio="xMidYMid meet">

<g transform="translate(0.000000,45.000000) scale(0.100000,-0.100000)"
fill="#000000" stroke="none">
<path d="M67 403 c-4 -3 -7 -73 -7 -154 0 -164 -2 -159 73 -159 30 0 48 -7 67
-25 l26 -25 24 25 c18 20 33 25 69 25 74 0 76 3 79 142 2 70 -1 135 -7 151
l-11 27 -153 0 c-85 0 -157 -3 -160 -7z m202 -67 c20 -24 9 -69 -20 -85 -24
-13 -29 -13 -53 2 -28 19 -36 63 -14 85 17 17 73 15 87 -2z m19 -152 c38 -27
25 -34 -63 -34 -47 0 -85 4 -85 9 0 19 45 41 85 41 22 0 51 -7 63 -16z"/>
</g>
</svg>
